<svg xmlns="http://www.w3.org/2000/svg" width="52" height="52" viewBox="0 0 52 52"><path fill="#2C3259" stroke="#2C3259" d="M26 1C12.215 1 1 12.215 1 26s11.215 25 25 25 25-11.215 25-25S39.785 1 26 1zm0 48.276C13.166 49.276 2.724 38.834 2.724 26S13.166 2.724 26 2.724 49.276 13.166 49.276 26 38.834 49.276 26 49.276zm15.93-18.821a.863.863 0 0 0-1.098.53A15.725 15.725 0 0 1 26 41.516a15.725 15.725 0 0 1-14.832-10.533.862.862 0 0 0-1.628.568A17.45 17.45 0 0 0 26 43.242a17.45 17.45 0 0 0 16.46-11.69.862.862 0 0 0-.53-1.097zm-26.146-7.041a3.644 3.644 0 0 0 3.64-3.64 3.644 3.644 0 0 0-3.64-3.64 3.644 3.644 0 0 0-3.64 3.64 3.643 3.643 0 0 0 3.64 3.64zm0-5.556c1.056 0 1.915.86 1.915 1.916a1.919 1.919 0 0 1-1.915 1.916 1.918 1.918 0 0 1-1.916-1.916c0-1.056.86-1.916 1.916-1.916zm20.432 5.556a3.644 3.644 0 0 0 3.64-3.64 3.644 3.644 0 0 0-3.64-3.64 3.644 3.644 0 0 0-3.64 3.64 3.644 3.644 0 0 0 3.64 3.64zm0-5.556c1.056 0 1.916.86 1.916 1.916a1.92 1.92 0 0 1-1.916 1.916 1.918 1.918 0 0 1-1.915-1.916c0-1.056.859-1.916 1.915-1.916z" opacity=".686"/></svg>