<svg xmlns="http://www.w3.org/2000/svg" width="52" height="52" viewBox="0 0 52 52"><path fill="#2C3259" stroke="#2C3259" d="M26 1C12.215 1 1 12.215 1 26s11.215 25 25 25 25-11.215 25-25S39.785 1 26 1zm0 48.276C13.166 49.276 2.724 38.834 2.724 26S13.166 2.724 26 2.724 49.276 13.166 49.276 26 38.834 49.276 26 49.276zm0-18.104c5.075 0 9.823 2.734 12.39 7.133a.862.862 0 0 1-1.49.869c-2.259-3.872-6.435-6.277-10.9-6.277-4.465 0-8.641 2.405-10.9 6.276a.862.862 0 1 1-1.49-.868c2.567-4.4 7.315-7.133 12.39-7.133zm-10.503-8.046a3.643 3.643 0 0 1-3.64-3.64 3.644 3.644 0 0 1 3.64-3.639 3.644 3.644 0 0 1 3.64 3.64 3.644 3.644 0 0 1-3.64 3.64zm0-5.555c-1.057 0-1.916.86-1.916 1.916s.86 1.915 1.916 1.915 1.915-.86 1.915-1.916-.86-1.915-1.915-1.915zm20.432 5.555a3.644 3.644 0 0 1-3.64-3.64 3.644 3.644 0 0 1 3.64-3.639 3.644 3.644 0 0 1 3.64 3.64 3.644 3.644 0 0 1-3.64 3.64zm0-5.555c-1.057 0-1.916.86-1.916 1.916s.86 1.915 1.916 1.915 1.915-.86 1.915-1.916-.859-1.915-1.915-1.915z" opacity=".686"/></svg>